<mxfile host="app.diagrams.net" agent="Mozilla/5.0 (Windows NT 10.0; Win64; x64) AppleWebKit/537.36 (KHTML, like Gecko) Chrome/136.0.0.0 Safari/537.36" version="26.1.1" pages="2">
  <diagram id="vZv2f6N4h2fVlUgS8-mH" name="Page-1">
    <mxGraphModel dx="2124" dy="657" grid="1" gridSize="10" guides="1" tooltips="1" connect="1" arrows="1" fold="1" page="1" pageScale="1" pageWidth="827" pageHeight="1169" math="0" shadow="0">
      <root>
        <mxCell id="0" />
        <mxCell id="1" parent="0" />
        <mxCell id="rlbLfpFhO2BiyqU0LLHT-1" value="" style="group" parent="1" vertex="1" connectable="0">
          <mxGeometry x="510" y="40" width="180" height="120" as="geometry" />
        </mxCell>
        <mxCell id="rlbLfpFhO2BiyqU0LLHT-2" value="+ method(type): type" style="text;strokeColor=none;fillColor=none;align=left;verticalAlign=top;spacingLeft=4;spacingRight=4;overflow=hidden;rotatable=0;points=[[0,0.5],[1,0.5]];portConstraint=eastwest;" parent="rlbLfpFhO2BiyqU0LLHT-1" vertex="1">
          <mxGeometry y="60" width="180" height="50" as="geometry" />
        </mxCell>
        <mxCell id="rlbLfpFhO2BiyqU0LLHT-3" value="«interface»&lt;br&gt;&lt;b&gt;ASTNode&lt;br&gt;&lt;br&gt;&lt;br&gt;&lt;br&gt;&lt;br&gt;&lt;br&gt;&lt;/b&gt;" style="html=1;" parent="rlbLfpFhO2BiyqU0LLHT-1" vertex="1">
          <mxGeometry width="180" height="120" as="geometry" />
        </mxCell>
        <mxCell id="rlbLfpFhO2BiyqU0LLHT-4" value="" style="line;strokeWidth=1;fillColor=none;align=left;verticalAlign=middle;spacingTop=-1;spacingLeft=3;spacingRight=3;rotatable=0;labelPosition=right;points=[];portConstraint=eastwest;" parent="rlbLfpFhO2BiyqU0LLHT-1" vertex="1">
          <mxGeometry y="50" width="180" height="8" as="geometry" />
        </mxCell>
        <mxCell id="rlbLfpFhO2BiyqU0LLHT-5" value="" style="group" parent="1" vertex="1" connectable="0">
          <mxGeometry x="510" y="270" width="193.5" height="126" as="geometry" />
        </mxCell>
        <mxCell id="rlbLfpFhO2BiyqU0LLHT-6" value="+ method(type): type" style="text;strokeColor=none;fillColor=none;align=left;verticalAlign=top;spacingLeft=4;spacingRight=4;overflow=hidden;rotatable=0;points=[[0,0.5],[1,0.5]];portConstraint=eastwest;" parent="rlbLfpFhO2BiyqU0LLHT-5" vertex="1">
          <mxGeometry y="60" width="180" height="50" as="geometry" />
        </mxCell>
        <mxCell id="rlbLfpFhO2BiyqU0LLHT-7" value="«interface»&lt;br&gt;&lt;b&gt;Type&lt;br&gt;&lt;br&gt;&lt;br&gt;&lt;br&gt;&lt;br&gt;&lt;br&gt;&lt;/b&gt;" style="html=1;" parent="rlbLfpFhO2BiyqU0LLHT-5" vertex="1">
          <mxGeometry width="180" height="110" as="geometry" />
        </mxCell>
        <mxCell id="rlbLfpFhO2BiyqU0LLHT-8" value="" style="line;strokeWidth=1;fillColor=none;align=left;verticalAlign=middle;spacingTop=-1;spacingLeft=3;spacingRight=3;rotatable=0;labelPosition=right;points=[];portConstraint=eastwest;" parent="rlbLfpFhO2BiyqU0LLHT-5" vertex="1">
          <mxGeometry y="40" width="180" height="8" as="geometry" />
        </mxCell>
        <mxCell id="jiGq7M3ya4mWDzan2j70-5" value="Array" style="swimlane;fontStyle=1;align=center;verticalAlign=top;childLayout=stackLayout;horizontal=1;startSize=26;horizontalStack=0;resizeParent=1;resizeParentMax=0;resizeLast=0;collapsible=1;marginBottom=0;" parent="1" vertex="1">
          <mxGeometry x="690" y="585" width="167" height="60" as="geometry" />
        </mxCell>
        <mxCell id="jiGq7M3ya4mWDzan2j70-6" value="+ size: int" style="text;strokeColor=none;fillColor=none;align=left;verticalAlign=top;spacingLeft=4;spacingRight=4;overflow=hidden;rotatable=0;points=[[0,0.5],[1,0.5]];portConstraint=eastwest;" parent="jiGq7M3ya4mWDzan2j70-5" vertex="1">
          <mxGeometry y="26" width="167" height="26" as="geometry" />
        </mxCell>
        <mxCell id="jiGq7M3ya4mWDzan2j70-7" value="" style="line;strokeWidth=1;fillColor=none;align=left;verticalAlign=middle;spacingTop=-1;spacingLeft=3;spacingRight=3;rotatable=0;labelPosition=right;points=[];portConstraint=eastwest;" parent="jiGq7M3ya4mWDzan2j70-5" vertex="1">
          <mxGeometry y="52" width="167" height="8" as="geometry" />
        </mxCell>
        <mxCell id="jiGq7M3ya4mWDzan2j70-8" value="Struct" style="swimlane;fontStyle=1;align=center;verticalAlign=top;childLayout=stackLayout;horizontal=1;startSize=26;horizontalStack=0;resizeParent=1;resizeParentMax=0;resizeLast=0;collapsible=1;marginBottom=0;" parent="1" vertex="1">
          <mxGeometry x="1100" y="585" width="167" height="34" as="geometry" />
        </mxCell>
        <mxCell id="jiGq7M3ya4mWDzan2j70-10" value="" style="line;strokeWidth=1;fillColor=none;align=left;verticalAlign=middle;spacingTop=-1;spacingLeft=3;spacingRight=3;rotatable=0;labelPosition=right;points=[];portConstraint=eastwest;" parent="jiGq7M3ya4mWDzan2j70-8" vertex="1">
          <mxGeometry y="26" width="167" height="8" as="geometry" />
        </mxCell>
        <mxCell id="jiGq7M3ya4mWDzan2j70-11" value="" style="endArrow=block;dashed=1;endFill=0;endSize=12;html=1;" parent="1" source="VT82_3uqBTPFHjFQVwiJ-1" target="rlbLfpFhO2BiyqU0LLHT-7" edge="1">
          <mxGeometry width="160" relative="1" as="geometry">
            <mxPoint x="440" y="550" as="sourcePoint" />
            <mxPoint x="574" y="820" as="targetPoint" />
            <Array as="points">
              <mxPoint x="580" y="500" />
              <mxPoint x="600" y="500" />
            </Array>
          </mxGeometry>
        </mxCell>
        <mxCell id="jiGq7M3ya4mWDzan2j70-12" value="" style="endArrow=block;dashed=1;endFill=0;endSize=12;html=1;" parent="1" source="jiGq7M3ya4mWDzan2j70-5" target="rlbLfpFhO2BiyqU0LLHT-7" edge="1">
          <mxGeometry width="160" relative="1" as="geometry">
            <mxPoint x="580" y="550" as="sourcePoint" />
            <mxPoint x="740" y="550" as="targetPoint" />
            <Array as="points">
              <mxPoint x="774" y="500" />
              <mxPoint x="600" y="500" />
            </Array>
          </mxGeometry>
        </mxCell>
        <mxCell id="jiGq7M3ya4mWDzan2j70-13" value="" style="endArrow=block;dashed=1;endFill=0;endSize=12;html=1;" parent="1" source="jiGq7M3ya4mWDzan2j70-8" target="rlbLfpFhO2BiyqU0LLHT-7" edge="1">
          <mxGeometry width="160" relative="1" as="geometry">
            <mxPoint x="667" y="540" as="sourcePoint" />
            <mxPoint x="827" y="540" as="targetPoint" />
            <Array as="points">
              <mxPoint x="1184" y="500" />
              <mxPoint x="600" y="500" />
            </Array>
          </mxGeometry>
        </mxCell>
        <mxCell id="jiGq7M3ya4mWDzan2j70-14" value="1" style="endArrow=open;html=1;endSize=12;startArrow=diamondThin;startSize=14;startFill=0;edgeStyle=orthogonalEdgeStyle;align=left;verticalAlign=bottom;" parent="1" source="jiGq7M3ya4mWDzan2j70-5" target="rlbLfpFhO2BiyqU0LLHT-7" edge="1">
          <mxGeometry x="0.9768" relative="1" as="geometry">
            <mxPoint x="590" y="730" as="sourcePoint" />
            <mxPoint x="750" y="730" as="targetPoint" />
            <mxPoint as="offset" />
            <Array as="points">
              <mxPoint x="774" y="770" />
              <mxPoint x="1320" y="770" />
              <mxPoint x="1320" y="330" />
            </Array>
          </mxGeometry>
        </mxCell>
        <mxCell id="jiGq7M3ya4mWDzan2j70-15" value="VarDefinition&#xa;" style="swimlane;fontStyle=1;align=center;verticalAlign=top;childLayout=stackLayout;horizontal=1;startSize=26;horizontalStack=0;resizeParent=1;resizeParentMax=0;resizeLast=0;collapsible=1;marginBottom=0;" parent="1" vertex="1">
          <mxGeometry x="1100" y="690" width="167" height="34" as="geometry">
            <mxRectangle x="330" y="1027" width="100" height="30" as="alternateBounds" />
          </mxGeometry>
        </mxCell>
        <mxCell id="jiGq7M3ya4mWDzan2j70-16" value="" style="line;strokeWidth=1;fillColor=none;align=left;verticalAlign=middle;spacingTop=-1;spacingLeft=3;spacingRight=3;rotatable=0;labelPosition=right;points=[];portConstraint=eastwest;" parent="jiGq7M3ya4mWDzan2j70-15" vertex="1">
          <mxGeometry y="26" width="167" height="8" as="geometry" />
        </mxCell>
        <mxCell id="VT82_3uqBTPFHjFQVwiJ-1" value="Char" style="swimlane;fontStyle=1;align=center;verticalAlign=top;childLayout=stackLayout;horizontal=1;startSize=26;horizontalStack=0;resizeParent=1;resizeParentMax=0;resizeLast=0;collapsible=1;marginBottom=0;" parent="1" vertex="1">
          <mxGeometry x="497" y="585" width="167" height="34" as="geometry" />
        </mxCell>
        <mxCell id="VT82_3uqBTPFHjFQVwiJ-3" value="" style="line;strokeWidth=1;fillColor=none;align=left;verticalAlign=middle;spacingTop=-1;spacingLeft=3;spacingRight=3;rotatable=0;labelPosition=right;points=[];portConstraint=eastwest;" parent="VT82_3uqBTPFHjFQVwiJ-1" vertex="1">
          <mxGeometry y="26" width="167" height="8" as="geometry" />
        </mxCell>
        <mxCell id="VT82_3uqBTPFHjFQVwiJ-4" value="Int" style="swimlane;fontStyle=1;align=center;verticalAlign=top;childLayout=stackLayout;horizontal=1;startSize=26;horizontalStack=0;resizeParent=1;resizeParentMax=0;resizeLast=0;collapsible=1;marginBottom=0;" parent="1" vertex="1">
          <mxGeometry x="110" y="585" width="167" height="34" as="geometry" />
        </mxCell>
        <mxCell id="VT82_3uqBTPFHjFQVwiJ-5" value="" style="line;strokeWidth=1;fillColor=none;align=left;verticalAlign=middle;spacingTop=-1;spacingLeft=3;spacingRight=3;rotatable=0;labelPosition=right;points=[];portConstraint=eastwest;" parent="VT82_3uqBTPFHjFQVwiJ-4" vertex="1">
          <mxGeometry y="26" width="167" height="8" as="geometry" />
        </mxCell>
        <mxCell id="VT82_3uqBTPFHjFQVwiJ-6" value="DoubleType" style="swimlane;fontStyle=1;align=center;verticalAlign=top;childLayout=stackLayout;horizontal=1;startSize=26;horizontalStack=0;resizeParent=1;resizeParentMax=0;resizeLast=0;collapsible=1;marginBottom=0;" parent="1" vertex="1">
          <mxGeometry x="-70" y="585" width="167" height="34" as="geometry" />
        </mxCell>
        <mxCell id="VT82_3uqBTPFHjFQVwiJ-7" value="" style="line;strokeWidth=1;fillColor=none;align=left;verticalAlign=middle;spacingTop=-1;spacingLeft=3;spacingRight=3;rotatable=0;labelPosition=right;points=[];portConstraint=eastwest;" parent="VT82_3uqBTPFHjFQVwiJ-6" vertex="1">
          <mxGeometry y="26" width="167" height="8" as="geometry" />
        </mxCell>
        <mxCell id="VT82_3uqBTPFHjFQVwiJ-8" value="Function" style="swimlane;fontStyle=1;align=center;verticalAlign=top;childLayout=stackLayout;horizontal=1;startSize=26;horizontalStack=0;resizeParent=1;resizeParentMax=0;resizeLast=0;collapsible=1;marginBottom=0;" parent="1" vertex="1">
          <mxGeometry x="890" y="585" width="167" height="34" as="geometry" />
        </mxCell>
        <mxCell id="VT82_3uqBTPFHjFQVwiJ-9" value="" style="line;strokeWidth=1;fillColor=none;align=left;verticalAlign=middle;spacingTop=-1;spacingLeft=3;spacingRight=3;rotatable=0;labelPosition=right;points=[];portConstraint=eastwest;" parent="VT82_3uqBTPFHjFQVwiJ-8" vertex="1">
          <mxGeometry y="26" width="167" height="8" as="geometry" />
        </mxCell>
        <mxCell id="VT82_3uqBTPFHjFQVwiJ-10" value="VoidType" style="swimlane;fontStyle=1;align=center;verticalAlign=top;childLayout=stackLayout;horizontal=1;startSize=26;horizontalStack=0;resizeParent=1;resizeParentMax=0;resizeLast=0;collapsible=1;marginBottom=0;" parent="1" vertex="1">
          <mxGeometry x="310" y="585" width="167" height="34" as="geometry" />
        </mxCell>
        <mxCell id="VT82_3uqBTPFHjFQVwiJ-11" value="" style="line;strokeWidth=1;fillColor=none;align=left;verticalAlign=middle;spacingTop=-1;spacingLeft=3;spacingRight=3;rotatable=0;labelPosition=right;points=[];portConstraint=eastwest;" parent="VT82_3uqBTPFHjFQVwiJ-10" vertex="1">
          <mxGeometry y="26" width="167" height="8" as="geometry" />
        </mxCell>
        <mxCell id="VT82_3uqBTPFHjFQVwiJ-12" value="" style="endArrow=block;endSize=16;endFill=0;html=1;" parent="1" source="rlbLfpFhO2BiyqU0LLHT-7" target="rlbLfpFhO2BiyqU0LLHT-3" edge="1">
          <mxGeometry width="160" relative="1" as="geometry">
            <mxPoint x="520" y="220" as="sourcePoint" />
            <mxPoint x="680" y="220" as="targetPoint" />
          </mxGeometry>
        </mxCell>
        <mxCell id="VT82_3uqBTPFHjFQVwiJ-13" value="1" style="endArrow=open;html=1;endSize=12;startArrow=diamondThin;startSize=14;startFill=0;edgeStyle=orthogonalEdgeStyle;align=left;verticalAlign=bottom;" parent="1" source="VT82_3uqBTPFHjFQVwiJ-8" target="rlbLfpFhO2BiyqU0LLHT-7" edge="1">
          <mxGeometry x="0.9726" relative="1" as="geometry">
            <mxPoint x="784" y="655" as="sourcePoint" />
            <mxPoint x="700" y="340" as="targetPoint" />
            <mxPoint as="offset" />
            <Array as="points">
              <mxPoint x="980" y="750" />
              <mxPoint x="1310" y="750" />
              <mxPoint x="1310" y="350" />
            </Array>
          </mxGeometry>
        </mxCell>
        <mxCell id="VT82_3uqBTPFHjFQVwiJ-14" value="" style="endArrow=block;dashed=1;endFill=0;endSize=12;html=1;" parent="1" source="VT82_3uqBTPFHjFQVwiJ-10" target="rlbLfpFhO2BiyqU0LLHT-7" edge="1">
          <mxGeometry width="160" relative="1" as="geometry">
            <mxPoint x="590" y="595" as="sourcePoint" />
            <mxPoint x="610" y="400" as="targetPoint" />
            <Array as="points">
              <mxPoint x="394" y="500" />
              <mxPoint x="600" y="500" />
            </Array>
          </mxGeometry>
        </mxCell>
        <mxCell id="VT82_3uqBTPFHjFQVwiJ-15" value="" style="endArrow=block;dashed=1;endFill=0;endSize=12;html=1;" parent="1" source="VT82_3uqBTPFHjFQVwiJ-4" target="rlbLfpFhO2BiyqU0LLHT-7" edge="1">
          <mxGeometry width="160" relative="1" as="geometry">
            <mxPoint x="600" y="605" as="sourcePoint" />
            <mxPoint x="620" y="410" as="targetPoint" />
            <Array as="points">
              <mxPoint x="194" y="500" />
              <mxPoint x="600" y="500" />
            </Array>
          </mxGeometry>
        </mxCell>
        <mxCell id="VT82_3uqBTPFHjFQVwiJ-16" value="" style="endArrow=block;dashed=1;endFill=0;endSize=12;html=1;" parent="1" source="VT82_3uqBTPFHjFQVwiJ-6" target="rlbLfpFhO2BiyqU0LLHT-7" edge="1">
          <mxGeometry width="160" relative="1" as="geometry">
            <mxPoint x="610" y="615" as="sourcePoint" />
            <mxPoint x="630" y="420" as="targetPoint" />
            <Array as="points">
              <mxPoint x="14" y="500" />
              <mxPoint x="600" y="500" />
            </Array>
          </mxGeometry>
        </mxCell>
        <mxCell id="VT82_3uqBTPFHjFQVwiJ-18" value="" style="endArrow=block;dashed=1;endFill=0;endSize=12;html=1;" parent="1" source="VT82_3uqBTPFHjFQVwiJ-8" target="rlbLfpFhO2BiyqU0LLHT-7" edge="1">
          <mxGeometry width="160" relative="1" as="geometry">
            <mxPoint x="784" y="595" as="sourcePoint" />
            <mxPoint x="610" y="400" as="targetPoint" />
            <Array as="points">
              <mxPoint x="970" y="500" />
              <mxPoint x="600" y="500" />
            </Array>
          </mxGeometry>
        </mxCell>
        <mxCell id="VT82_3uqBTPFHjFQVwiJ-19" value="*" style="endArrow=open;html=1;endSize=12;startArrow=diamondThin;startSize=14;startFill=0;edgeStyle=orthogonalEdgeStyle;align=left;verticalAlign=bottom;" parent="1" source="VT82_3uqBTPFHjFQVwiJ-8" target="jiGq7M3ya4mWDzan2j70-15" edge="1">
          <mxGeometry x="0.6628" y="7" relative="1" as="geometry">
            <mxPoint x="1010" y="650" as="sourcePoint" />
            <mxPoint x="1170" y="650" as="targetPoint" />
            <mxPoint as="offset" />
            <Array as="points">
              <mxPoint x="1010" y="707" />
            </Array>
          </mxGeometry>
        </mxCell>
        <mxCell id="VT82_3uqBTPFHjFQVwiJ-20" value="RecordField" style="swimlane;fontStyle=1;align=center;verticalAlign=top;childLayout=stackLayout;horizontal=1;startSize=26;horizontalStack=0;resizeParent=1;resizeParentMax=0;resizeLast=0;collapsible=1;marginBottom=0;" parent="1" vertex="1">
          <mxGeometry x="933" y="380" width="167" height="58" as="geometry" />
        </mxCell>
        <mxCell id="VT82_3uqBTPFHjFQVwiJ-21" value="+ name: String" style="text;strokeColor=none;fillColor=none;align=left;verticalAlign=top;spacingLeft=4;spacingRight=4;overflow=hidden;rotatable=0;points=[[0,0.5],[1,0.5]];portConstraint=eastwest;" parent="VT82_3uqBTPFHjFQVwiJ-20" vertex="1">
          <mxGeometry y="26" width="167" height="24" as="geometry" />
        </mxCell>
        <mxCell id="VT82_3uqBTPFHjFQVwiJ-22" value="" style="line;strokeWidth=1;fillColor=none;align=left;verticalAlign=middle;spacingTop=-1;spacingLeft=3;spacingRight=3;rotatable=0;labelPosition=right;points=[];portConstraint=eastwest;" parent="VT82_3uqBTPFHjFQVwiJ-20" vertex="1">
          <mxGeometry y="50" width="167" height="8" as="geometry" />
        </mxCell>
        <mxCell id="VT82_3uqBTPFHjFQVwiJ-24" value="1..*" style="endArrow=open;html=1;endSize=12;startArrow=diamondThin;startSize=14;startFill=0;edgeStyle=orthogonalEdgeStyle;align=left;verticalAlign=bottom;exitX=0.75;exitY=0;exitDx=0;exitDy=0;" parent="1" source="jiGq7M3ya4mWDzan2j70-8" target="VT82_3uqBTPFHjFQVwiJ-20" edge="1">
          <mxGeometry x="0.8885" relative="1" as="geometry">
            <mxPoint x="1090" y="450" as="sourcePoint" />
            <mxPoint x="1250" y="450" as="targetPoint" />
            <mxPoint as="offset" />
            <Array as="points">
              <mxPoint x="1225" y="410" />
            </Array>
          </mxGeometry>
        </mxCell>
        <mxCell id="VT82_3uqBTPFHjFQVwiJ-25" value="1" style="endArrow=open;html=1;endSize=12;startArrow=diamondThin;startSize=14;startFill=0;edgeStyle=orthogonalEdgeStyle;align=left;verticalAlign=bottom;" parent="1" source="VT82_3uqBTPFHjFQVwiJ-20" target="rlbLfpFhO2BiyqU0LLHT-7" edge="1">
          <mxGeometry x="0.8824" relative="1" as="geometry">
            <mxPoint x="760" y="409.40999999999997" as="sourcePoint" />
            <mxPoint x="920" y="409.40999999999997" as="targetPoint" />
            <mxPoint as="offset" />
            <Array as="points">
              <mxPoint x="845" y="410" />
              <mxPoint x="845" y="380" />
            </Array>
          </mxGeometry>
        </mxCell>
        <mxCell id="PTRANAso_r1I-YJsSFSw-1" value="" style="group" parent="1" vertex="1" connectable="0">
          <mxGeometry x="840" y="50" width="180" height="120" as="geometry" />
        </mxCell>
        <mxCell id="PTRANAso_r1I-YJsSFSw-2" value="+ method(type): type" style="text;strokeColor=none;fillColor=none;align=left;verticalAlign=top;spacingLeft=4;spacingRight=4;overflow=hidden;rotatable=0;points=[[0,0.5],[1,0.5]];portConstraint=eastwest;" parent="PTRANAso_r1I-YJsSFSw-1" vertex="1">
          <mxGeometry y="60" width="180" height="50" as="geometry" />
        </mxCell>
        <mxCell id="PTRANAso_r1I-YJsSFSw-3" value="«interface»&lt;br&gt;&lt;b&gt;Locatable&lt;br&gt;&lt;br&gt;&lt;br&gt;&lt;br&gt;&lt;br&gt;&lt;br&gt;&lt;/b&gt;" style="html=1;" parent="PTRANAso_r1I-YJsSFSw-1" vertex="1">
          <mxGeometry width="180" height="120" as="geometry" />
        </mxCell>
        <mxCell id="PTRANAso_r1I-YJsSFSw-4" value="" style="line;strokeWidth=1;fillColor=none;align=left;verticalAlign=middle;spacingTop=-1;spacingLeft=3;spacingRight=3;rotatable=0;labelPosition=right;points=[];portConstraint=eastwest;" parent="PTRANAso_r1I-YJsSFSw-1" vertex="1">
          <mxGeometry y="50" width="180" height="8" as="geometry" />
        </mxCell>
        <mxCell id="PTRANAso_r1I-YJsSFSw-5" value="+ getLine(): int&#xa;+ getColumn(): int" style="text;strokeColor=none;fillColor=none;align=left;verticalAlign=top;spacingLeft=4;spacingRight=4;overflow=hidden;rotatable=0;points=[[0,0.5],[1,0.5]];portConstraint=eastwest;" parent="PTRANAso_r1I-YJsSFSw-1" vertex="1">
          <mxGeometry y="60" width="180" height="40" as="geometry" />
        </mxCell>
        <mxCell id="PTRANAso_r1I-YJsSFSw-11" value="" style="endArrow=block;endSize=16;endFill=0;html=1;" parent="1" source="PTRANAso_r1I-YJsSFSw-3" target="rlbLfpFhO2BiyqU0LLHT-3" edge="1">
          <mxGeometry width="160" relative="1" as="geometry">
            <mxPoint x="670" y="220" as="sourcePoint" />
            <mxPoint x="830" y="220" as="targetPoint" />
          </mxGeometry>
        </mxCell>
        <mxCell id="PTRANAso_r1I-YJsSFSw-12" value="" style="endArrow=block;dashed=1;endFill=0;endSize=12;html=1;" parent="1" source="VT82_3uqBTPFHjFQVwiJ-20" target="PTRANAso_r1I-YJsSFSw-3" edge="1">
          <mxGeometry width="160" relative="1" as="geometry">
            <mxPoint x="870" y="240" as="sourcePoint" />
            <mxPoint x="1030" y="240" as="targetPoint" />
          </mxGeometry>
        </mxCell>
        <mxCell id="AvysYNHUNDPnWlZyKn92-1" value="ErrorType" style="swimlane;fontStyle=1;align=center;verticalAlign=top;childLayout=stackLayout;horizontal=1;startSize=26;horizontalStack=0;resizeParent=1;resizeParentMax=0;resizeLast=0;collapsible=1;marginBottom=0;" parent="1" vertex="1">
          <mxGeometry x="230" y="210" width="167" height="86" as="geometry">
            <mxRectangle x="230" y="210" width="90" height="30" as="alternateBounds" />
          </mxGeometry>
        </mxCell>
        <mxCell id="AvysYNHUNDPnWlZyKn92-3" value="+ message: String" style="text;strokeColor=none;fillColor=none;align=left;verticalAlign=top;spacingLeft=4;spacingRight=4;overflow=hidden;rotatable=0;points=[[0,0.5],[1,0.5]];portConstraint=eastwest;" parent="AvysYNHUNDPnWlZyKn92-1" vertex="1">
          <mxGeometry y="26" width="167" height="26" as="geometry" />
        </mxCell>
        <mxCell id="AvysYNHUNDPnWlZyKn92-2" value="" style="line;strokeWidth=1;fillColor=none;align=left;verticalAlign=middle;spacingTop=-1;spacingLeft=3;spacingRight=3;rotatable=0;labelPosition=right;points=[];portConstraint=eastwest;" parent="AvysYNHUNDPnWlZyKn92-1" vertex="1">
          <mxGeometry y="52" width="167" height="8" as="geometry" />
        </mxCell>
        <mxCell id="AvysYNHUNDPnWlZyKn92-4" value="+ toString(): String" style="text;strokeColor=none;fillColor=none;align=left;verticalAlign=top;spacingLeft=4;spacingRight=4;overflow=hidden;rotatable=0;points=[[0,0.5],[1,0.5]];portConstraint=eastwest;" parent="AvysYNHUNDPnWlZyKn92-1" vertex="1">
          <mxGeometry y="60" width="167" height="26" as="geometry" />
        </mxCell>
        <mxCell id="AvysYNHUNDPnWlZyKn92-5" value="" style="endArrow=block;dashed=1;endFill=0;endSize=12;html=1;" parent="1" source="AvysYNHUNDPnWlZyKn92-1" target="PTRANAso_r1I-YJsSFSw-3" edge="1">
          <mxGeometry width="160" relative="1" as="geometry">
            <mxPoint x="971" y="150" as="sourcePoint" />
            <mxPoint x="910" y="-60" as="targetPoint" />
            <Array as="points">
              <mxPoint x="314" y="30" />
              <mxPoint x="940" y="30" />
            </Array>
          </mxGeometry>
        </mxCell>
        <mxCell id="AvysYNHUNDPnWlZyKn92-6" value="" style="endArrow=block;dashed=1;endFill=0;endSize=12;html=1;" parent="1" source="AvysYNHUNDPnWlZyKn92-1" target="rlbLfpFhO2BiyqU0LLHT-7" edge="1">
          <mxGeometry width="160" relative="1" as="geometry">
            <mxPoint x="404" y="595" as="sourcePoint" />
            <mxPoint x="610" y="400" as="targetPoint" />
            <Array as="points" />
          </mxGeometry>
        </mxCell>
      </root>
    </mxGraphModel>
  </diagram>
  <diagram id="bk84AN6vChEhuG9X8hu6" name="Statements">
    <mxGraphModel dx="1434" dy="830" grid="0" gridSize="10" guides="1" tooltips="1" connect="1" arrows="1" fold="1" page="0" pageScale="1" pageWidth="827" pageHeight="1169" math="0" shadow="0">
      <root>
        <mxCell id="0" />
        <mxCell id="1" parent="0" />
      </root>
    </mxGraphModel>
  </diagram>
</mxfile>
